<svg id="svg" version="1.1" width="200" height="200" xmlns="http://www.w3.org/2000/svg" xmlns:xlink="http://www.w3.org/1999/xlink" style="display: block;"><g id="svgg"><path id="path0" d="M185.852 108.045 C 145.063 112.355,109.642 143.530,101.958 181.882 C 91.565 233.754,126.766 282.437,181.375 291.714 C 196.801 294.335,221.417 292.317,236.000 287.237 C 254.964 280.630,278.263 262.761,285.041 249.624 C 285.431 248.868,286.012 247.972,286.331 247.633 C 287.743 246.135,293.081 234.719,294.927 229.250 C 303.616 203.512,300.027 173.618,285.617 151.711 C 264.665 119.858,227.597 103.634,185.852 108.045 M193.500 134.173 L 193.500 152.346 187.491 152.669 C 175.516 153.313,162.023 155.356,152.952 157.899 L 149.654 158.823 148.242 156.287 C 145.999 152.256,142.363 147.048,139.059 143.133 L 136.007 139.516 139.378 136.720 C 153.890 124.683,174.295 116.501,190.875 116.068 L 193.500 116.000 193.500 134.173 M221.258 117.939 C 236.903 121.495,250.623 128.325,262.699 138.567 C 262.946 138.777,261.808 140.479,260.169 142.349 C 256.483 146.555,253.248 150.823,250.772 154.750 C 249.731 156.400,248.834 157.803,248.779 157.869 C 248.724 157.934,245.666 157.308,241.983 156.478 C 233.185 154.494,221.629 153.024,211.875 152.649 L 204.000 152.346 204.000 134.096 L 204.000 115.847 209.383 116.155 C 212.438 116.330,217.575 117.102,221.258 117.939 M278.094 155.721 C 282.275 161.971,285.921 169.363,287.795 175.389 L 288.461 177.528 285.605 175.333 C 279.752 170.834,269.998 165.551,261.875 162.482 C 259.469 161.572,257.500 160.667,257.500 160.471 C 257.500 159.866,263.202 152.100,266.307 148.476 L 269.250 145.041 272.175 148.144 C 273.784 149.850,276.448 153.260,278.094 155.721 M133.424 149.695 C 136.437 153.486,141.000 160.473,141.000 161.295 C 141.000 161.548,139.594 162.294,137.875 162.952 C 130.370 165.825,120.870 171.094,114.687 175.812 C 112.384 177.569,110.500 178.911,110.500 178.793 C 110.500 173.875,121.257 154.754,127.894 147.875 C 130.223 145.461,130.001 145.388,133.424 149.695 M193.500 178.500 L 193.500 196.000 176.325 196.000 L 159.150 196.000 158.836 191.585 C 158.413 185.622,156.785 177.438,154.832 171.462 L 153.222 166.532 158.486 165.298 C 169.496 162.717,180.417 161.185,188.625 161.069 L 193.500 161.000 193.500 178.500 M223.953 162.038 C 233.262 163.202,244.804 165.569,244.646 166.282 C 244.589 166.539,243.750 168.937,242.783 171.611 C 240.633 177.554,239.147 184.644,238.694 191.125 L 238.352 196.000 221.176 196.000 L 204.000 196.000 204.000 178.500 L 204.000 161.000 209.828 161.000 C 213.033 161.000,219.390 161.467,223.953 162.038 M258.628 170.318 C 275.797 177.072,287.622 186.261,290.227 194.875 L 290.567 196.000 268.784 196.000 L 247.000 196.000 247.000 193.971 C 247.000 187.573,251.905 168.500,253.551 168.500 C 253.801 168.500,256.086 169.318,258.628 170.318 M146.622 173.947 C 148.346 179.119,149.947 186.908,150.344 192.049 L 150.648 196.000 130.540 196.000 L 110.433 196.000 110.773 194.875 C 113.273 186.611,124.179 177.843,140.250 171.178 C 145.226 169.115,144.975 169.006,146.622 173.947 M150.500 206.412 C 150.500 212.517,145.423 231.000,143.747 231.000 C 142.447 231.000,130.730 225.712,126.544 223.237 C 119.082 218.825,112.433 211.610,110.773 206.125 L 110.433 205.000 130.466 205.000 L 150.500 205.000 150.500 206.412 M193.500 222.719 L 193.500 240.437 191.875 240.225 C 190.981 240.109,186.988 239.770,183.000 239.472 C 172.712 238.703,153.521 235.248,152.768 234.029 C 152.633 233.810,153.207 231.754,154.044 229.460 C 156.114 223.789,157.859 216.364,158.580 210.160 L 159.180 205.000 176.340 205.000 L 193.500 205.000 193.500 222.719 M238.672 209.530 C 239.116 215.782,240.660 222.982,242.957 229.502 C 244.023 232.529,244.750 235.095,244.573 235.205 C 242.252 236.640,213.317 240.500,204.886 240.500 C 204.055 240.500,204.000 239.408,204.000 222.750 L 204.000 205.000 221.175 205.000 L 238.350 205.000 238.672 209.530 M290.219 206.125 C 288.190 212.675,281.282 219.604,271.500 224.901 C 266.433 227.645,253.936 232.636,253.421 232.121 C 251.330 230.030,247.000 213.213,247.000 207.185 L 247.000 205.000 268.784 205.000 L 290.567 205.000 290.219 206.125 M118.750 228.342 C 123.203 231.305,127.601 233.627,133.750 236.261 C 136.775 237.556,139.441 238.792,139.674 239.007 C 140.193 239.486,136.832 244.629,132.488 250.000 L 129.250 254.004 126.577 251.127 C 120.387 244.465,114.214 233.607,111.212 224.100 L 110.533 221.951 113.142 224.148 C 114.576 225.357,117.100 227.244,118.750 228.342 M287.011 227.718 C 284.290 235.892,272.010 255.250,269.544 255.250 C 268.884 255.250,263.001 248.325,260.233 244.289 L 257.516 240.328 263.383 237.904 C 273.259 233.822,284.807 227.393,286.993 224.758 C 288.129 223.390,288.134 224.341,287.011 227.718 M154.637 243.471 C 165.478 246.266,178.004 248.000,187.356 248.000 L 193.500 248.000 193.500 266.250 L 193.500 284.500 191.747 284.500 C 175.003 284.500,151.591 274.811,137.157 261.909 L 135.063 260.038 137.195 257.644 C 140.427 254.014,144.686 248.255,146.567 244.969 C 147.493 243.353,148.404 242.023,148.591 242.015 C 148.779 242.007,151.500 242.662,154.637 243.471 M252.161 247.875 C 253.957 250.556,257.156 254.746,259.270 257.186 L 263.114 261.621 261.682 262.822 C 246.459 275.590,229.226 282.435,206.625 284.691 L 204.000 284.953 204.000 266.534 L 204.000 248.115 214.125 247.864 C 224.762 247.600,233.307 246.538,242.750 244.307 C 245.500 243.657,248.008 243.097,248.323 243.063 C 248.639 243.028,250.366 245.194,252.161 247.875 " stroke="none" fill="#276286" fill-rule="evenodd" transform="translate(-100, -105)"></path></g></svg>